<svg id="Layer_1_copy_2" data-name="Layer 1 copy 2" xmlns="http://www.w3.org/2000/svg" width="670.94" height="154.19" viewBox="0 0 670.94 154.19">
  <title>PageCloud_logo</title>
  <g>
    <path d="M631,345.58a29.54,29.54,0,0,1,23.9,11.22v-3a5.58,5.58,0,0,1-.27-0.95c-0.18-2-.26-2.89-0.26-2.71q0-4.6,4.1-4.6,4.35,0,4.35,5.54,0,1.06-.26,6.34a91,91,0,0,0-.79,9.11,59.87,59.87,0,0,0,.45,7.26l0.6,5v1.32q0,5.94-4.75,5.94-5.15,0-5-5.63v-4.72q0.26-9.43-5.92-15.32T631,354.56q-13,0-20.41,10t-7.37,27.73q0,18.09,7.59,28.19T632,430.61A25.08,25.08,0,0,0,645.24,427a19.48,19.48,0,0,0,8.25-9.37,27.48,27.48,0,0,0,1.58-10.3q0-6.07,5-6.07,5.41,0,5.41,6.07,0,14.13-9.77,23.11t-25.22,9q-17.83,0-28.45-12.54t-10.63-33.41q0-21.52,10.89-34.73T631,345.58Z" transform="translate(-260.18 -322.91)" fill="#fff"/>
    <path d="M688.53,381.7v40.81q0.13,6.69,3.58,6.69a17.11,17.11,0,0,0,3.32-.66,16.54,16.54,0,0,1,2.12-.26q4.38,0,4.38,4.47t-5.37,4.34a66.24,66.24,0,0,1-6.68-.53,67.35,67.35,0,0,0-7.07-.53,56,56,0,0,0-6.29.53,55.51,55.51,0,0,1-6.16.53h-0.65q-5.5,0-5.5-4.73,0-4.07,4.51-4.07h0.93a5.81,5.81,0,0,0,1.2.18,33,33,0,0,0,3.85.73,2.76,2.76,0,0,0,3-2q0.6-2,.73-10.62l0.13-9.23V363.38a40.34,40.34,0,0,0-.39-5.28q-0.92-3-3.68-3-0.39,0-3.42.53a13.68,13.68,0,0,1-2.37.26q-4.47,0-4.47-4.21t5.26-4.34a21,21,0,0,1,2.5.13l3.15,0.39a21.67,21.67,0,0,0,7.49-.13,29.13,29.13,0,0,1,3.94-.39q3,0,3,3.81a11.09,11.09,0,0,1-.13,2Q688.53,363.2,688.53,381.7Z" transform="translate(-260.18 -322.91)" fill="#fff"/>
    <path d="M730.79,438.8q-13.8,0-22.08-9.53t-8.28-25.56q0-16,8.35-25.56t22.41-9.53q14.32,0,22.61,9.33t8.28,25.37q0,16-8.54,25.76T730.79,438.8Zm0.66-61.51q-9.2,0-14.46,6.44T711.2,402v1.71q0,12.36,5.19,19.39t14.52,7q9.59,0,15.05-7t5.45-19.52Q751.42,377.28,731.44,377.28Z" transform="translate(-260.18 -322.91)" fill="#fff"/>
    <path d="M818.82,433.28V429.2q-7,9.6-20.64,9.6-15.51,0-21.56-9.6a20,20,0,0,1-2.89-9.86q-0.13-2.76-.13-11.57V396.87q0-18-3.85-18a25,25,0,0,0-2.52.2,25.07,25.07,0,0,1-2.65.2q-4.65,0-4.65-4.27t5.65-4.14a33.69,33.69,0,0,1,3.88.33,32.94,32.94,0,0,0,3.88.33,35.11,35.11,0,0,0,4.07-.39c1.32-.17,2.06-0.26,2.23-0.26q4.07,0,4.07,5v11.3l-0.39,9.73v8.54q0,11.44,1.84,16.43,3,8.28,14.46,8.28c3.77,0,3.75-.85,6.65-2.56s8.25-4,9.39-6.77q2.1-5.13,2.1-19.45V385.56q-0.66-6.31-3.42-6.31h-3.94q-4.6,0-4.6-4,0-4.46,5.13-4.46,1.18,0,3.61.26t3.61,0.26a27.67,27.67,0,0,0,3.15-.26,28,28,0,0,1,3.16-.26q3.94,0,3.94,4.22a12.56,12.56,0,0,1-.26,2.9,122.47,122.47,0,0,0-.66,14.75V413q0,8,.13,9,0.66,7,3.68,7a15,15,0,0,0,2.63-.33,15.16,15.16,0,0,1,2.63-.33q4.47,0,4.47,4.34t-5.52,4.47a31.72,31.72,0,0,1-3.42-.26q-3.29-.39-4.07-0.39-0.4,0-2.76.26a11.58,11.58,0,0,1-2.76.39Q818.82,437.09,818.82,433.28Z" transform="translate(-260.18 -322.91)" fill="#fff"/>
    <path d="M868.54,368.61q13,0,19.45,10.12V365.45a43.79,43.79,0,0,0-.26-6.44q-0.66-4.07-3.68-4.07a15.66,15.66,0,0,0-3,.39,15.59,15.59,0,0,1-3,.39q-4.87,0-4.86-4.21t6.57-4.34q1.05,0,3.81.26l4.34,0.39a25.23,25.23,0,0,0,3.42-.33,25.74,25.74,0,0,1,3.42-.33q3.68,0,3.68,5.27v1.45q-0.13.4-.26,7,0,0.79-.39,10.14-0.27,6.58-.26,10v34.89q0.13,8.69.8,10.8a3,3,0,0,0,3.21,2.11,10.44,10.44,0,0,0,2.68-.26,29.14,29.14,0,0,1,2.95-.26q5,0,5,4.34t-5.91,4.47a36.88,36.88,0,0,1-4-.33,36.7,36.7,0,0,0-4-.33q-0.39,0-3,.26a11.59,11.59,0,0,1-2.76.39q-3.55,0-3.55-4.73v-2.89q-6.95,9.33-20.19,9.33t-21.5-9.73q-8.13-9.73-8.13-25.5t8-25.43Q855.13,368.61,868.54,368.61ZM887.46,415a95.34,95.34,0,0,0,.53-11.17,69.92,69.92,0,0,0-.66-12,16.53,16.53,0,0,0-5.69-10.25,18.67,18.67,0,0,0-12.18-4.34q-9.27,0-14.49,7t-5.23,19.06q0,12.49,5.43,19.65a19,19,0,0,0,26.73,3A16.49,16.49,0,0,0,887.46,415Z" transform="translate(-260.18 -322.91)" fill="#fff"/>
    <path d="M923,438.8a7.76,7.76,0,0,1-5.78-2.43,8.41,8.41,0,0,1,0-11.7,8.09,8.09,0,0,1,11.57,0,8.41,8.41,0,0,1,0,11.7A7.76,7.76,0,0,1,923,438.8Z" transform="translate(-260.18 -322.91)" fill="#fff"/>
    <path d="M329,413.71a25,25,0,0,1-9.42-1.54,3.61,3.61,0,0,0-2.57-.34q-0.52.17-1.37,2.74a99.62,99.62,0,0,1-13.36,30.15q-11.65,17.47-24.15,17.47-9.6,0-14.39-7.88-3.6-6.34-3.6-16.62,0-21.07,13.88-53.45,12.85-29.63,34.26-46.42,19.18-15.42,37.69-14.9,15.24,0.35,23,10.62,6.34,8.39,6.34,22.44,0,15.42-8.39,31.52-9.08,17.47-21.75,22.78a40,40,0,0,1-16.1,3.43M354.14,362q0.26-2.91.26-5.82,0-19.36-12.68-19.7-15.76-.17-35.63,25.35-16.45,21.42-22.27,40.43-7.88,26.21-7.88,34.09,0,7,4.45,7,8.39,0,18.67-36.49,2.74-10.45,5.65-34.94a5.79,5.79,0,0,1,2.83-4.45q2.48-1.54,4.88-3.08a10.15,10.15,0,0,1,6.17-2.57q3.25,0,3.6,3.94a98.88,98.88,0,0,1-.09,12.25q-0.43,7.62-1.8,18.42-0.51,3.43,1.88,3.77,11.65,0.86,20.73-10.62A47.49,47.49,0,0,0,353.2,367.8,41.47,41.47,0,0,0,354.14,362Z" transform="translate(-260.18 -322.91)" fill="#fff"/>
    <path d="M457.65,429.47a30,30,0,0,1-16.79,8.74q-2.05.34-4.28,0.51t-4.63.17q-12,0-16.36-3.17a9.8,9.8,0,0,1-4.37-8.31,33,33,0,0,1,1.37-7.54,1.56,1.56,0,0,0,0-1,0.93,0.93,0,0,0-.94.34,3.81,3.81,0,0,0-.94,1.2q-2.57,5.14-9.25,11.13-9.6,8.57-18.33,8.56-8.4,0-13-5.65-4.79-5.31-4.8-13.88,0-11.13,6.85-24.15a47.18,47.18,0,0,1,19.19-20A39.64,39.64,0,0,1,410,371.06,25.69,25.69,0,0,1,422.88,374q2.74,1.54,3.77-.34a16.58,16.58,0,0,1,2.06-2.74,7.88,7.88,0,0,1,2.74-1.89q1.71-.51,6.51.51,4.79,0.86,6,1.89,1.71,1.89.51,5.14-2.4,5.14-9.59,21.24-2.74,6.34-4.54,11.22t-3,8.48a19.7,19.7,0,0,0-1.2,6,4.63,4.63,0,0,0,1.2,3.43q2.74,2.74,11.48,2.74,3.25,0,8.39-3.08a41.42,41.42,0,0,0,5.31-3.68,22.78,22.78,0,0,0,4.11-4.37q0.85-1,1.37.51a14,14,0,0,1,.86,6.68q-0.35,2.91-1.2,3.77m-37-42.65q0-2.91-5.82-3.08-5.14-.34-12.51,4.28A38.93,38.93,0,0,0,391,399.15q-7.71,12.17-7.71,20.56,0,8.05,6.17,8.05,3.25,0,7.71-4.45,0.85-.85,2.65-3t4.71-5.57q7.88-9.59,15.93-26.89A2.43,2.43,0,0,0,420.65,386.82Z" transform="translate(-260.18 -322.91)" fill="#fff"/>
    <path d="M538.85,429.47a30,30,0,0,1-16.79,8.74q-1.89.17-4.54,0.51t-6.25.69q-11.14,1.54-13.19,6.51-8.39,19.7-15.42,25.35-6.51,5.82-12,5.82a9.35,9.35,0,0,1-6.34-2.23,7.74,7.74,0,0,1-2.57-6.17,15.77,15.77,0,0,1,2-7.11,36.94,36.94,0,0,1,7.28-9,39.23,39.23,0,0,1,8.91-6.68q1.2-.69,2.4-1.54l4.54-9.76q2.31-5,4.71-10.45,0.85-1.37-.51-1.37a1.91,1.91,0,0,0-1.54,1.2q-2.4,4.11-10.45,9.59-10.11,6.68-17.82,6-14.9-1.2-14.9-18.33a49.15,49.15,0,0,1,6-23.64,55.06,55.06,0,0,1,16.79-18.84q11-7.71,21.93-7.71a24.87,24.87,0,0,1,13,3.6,2,2,0,0,0,1.71,1q1.88,0,3.6-3.77,0.68-1.2,3.6-2.57a19.33,19.33,0,0,1,5-.17,16.32,16.32,0,0,1,5.31.86,4.4,4.4,0,0,1,2.91,4.11q0,1.2-10.11,27.58-9.08,23.47-10.79,27.75a1.33,1.33,0,0,0-.17.51,0.5,0.5,0,0,1-.17.34q-0.35.86,0,1a3.8,3.8,0,0,0,1.2-.17A85.79,85.79,0,0,1,520,429.64q3.76,0,9.76-3.94a38.66,38.66,0,0,0,8.05-7.19q0.85-1,1.37.51a14.06,14.06,0,0,1,.86,6.68q-0.34,2.91-1.2,3.77m-38.2-45.31a10.58,10.58,0,0,0-4.8-1.11,15.31,15.31,0,0,0-6.42,1.54,35.14,35.14,0,0,0-6.68,4.11,43.22,43.22,0,0,0-6.42,6.17,63.67,63.67,0,0,0-5.65,7.71Q464,413.37,464,420.05q0,7.37,6,7.37,6.85,0,20.56-19a96.21,96.21,0,0,0,11.31-20.21Q502.88,385.28,500.65,384.16Z" transform="translate(-260.18 -322.91)" fill="#fff"/>
    <path d="M596.79,429.47A31,31,0,0,1,580,438.38a85,85,0,0,1-17,1.54q-19.7,0-27.75-6.51Q526,425.7,526,412.17q0-11.82,6.85-25.35a33,33,0,0,1,13.88-14.56A30.87,30.87,0,0,1,562,368.15a16.91,16.91,0,0,1,7,1.2Q579,373.63,579,386a35.55,35.55,0,0,1-.51,5.82q-1.37,8.22-12.33,20a94.49,94.49,0,0,1-6.77,6.77q-3.34,3-6.59,5.4a3.48,3.48,0,0,0-.86,1q0,0.69,2.06,1.71,7.54,4.28,23.81,2.74,10.62-1,18-11,0.85-1,1.37.51a14.06,14.06,0,0,1,.86,6.68q-0.34,2.91-1.2,3.77m-41.2-44.8A21.67,21.67,0,0,0,549,393q-5.48,11.48-5.48,19.19,0,5.48,3.43,3.08a51.13,51.13,0,0,0,17.47-17.47q3.77-6.33,3.77-10.45,0-5.82-5-5.82Q559.79,381.51,555.6,384.68Z" transform="translate(-260.18 -322.91)" fill="#fff"/>
  </g>
</svg>
